<svg width="367" height="352" viewBox="0 0 367 352" fill="none" xmlns="http://www.w3.org/2000/svg">
<path d="M104.863 324.484L155.798 309.985C156.895 309.672 157.84 308.971 158.457 308.011C160.195 305.309 164.075 305.116 166.071 307.633L172.387 315.597C173.125 316.527 173.997 317.342 174.975 318.015L186.976 326.279C198.162 333.981 211.031 338.89 224.505 340.596L226.997 340.911C237.896 342.291 248.958 341.544 259.573 338.714L273.941 334.883C288.391 331.029 301.569 323.431 312.143 312.857L312.746 312.254C319.207 305.793 324.583 298.334 328.669 290.163L329.526 288.447C335.428 276.645 338.5 263.63 338.5 250.434V219.5L334.5 181V170.283C334.5 159.85 336.421 149.507 340.166 139.769L344.5 128.5L354.099 100.768C356.66 93.3712 357.35 85.4554 356.108 77.7269L355.427 73.4932C354.179 65.7243 350.353 58.6014 344.565 53.2707C338.093 47.3093 329.615 44 320.816 44H318.175C311.809 44 305.527 45.4534 299.808 48.2496L292.862 51.6452C288.299 53.876 283.974 56.5631 279.952 59.6655L276.121 62.6207C271.082 66.5084 266.784 71.2724 263.434 76.6842L256.472 87.9298C255.837 88.9563 255.5 90.1395 255.5 91.3467V114.843C255.5 118.017 251.042 118.72 250.065 115.7C250.022 115.567 249.969 115.437 249.906 115.312L243.5 102.5L235.5 82L232.419 73.5787C229.49 65.5718 225.372 58.0512 220.205 51.2694L212 40.5L206.467 34.6217C199.546 27.2674 191.356 21.2201 182.29 16.7697L182.004 16.6292C173.075 12.246 163.426 9.51678 153.524 8.57375L144.818 7.74453C139.658 7.25312 134.452 7.79632 129.505 9.34232L126.65 10.2345C117.959 12.9504 110.823 19.217 107.007 27.4843C103.183 35.7698 103.052 45.2885 106.647 53.6761L110.704 63.1429C112.23 66.7045 114.127 70.0959 116.361 73.2616L137 102.5L153.48 131.582C153.825 132.192 154.093 132.842 154.276 133.518L159.13 151.416C159.95 154.442 156.287 156.644 154 154.5L143.885 144.683C139.31 140.242 134.249 136.33 128.798 133.02L109 121L92.2606 110.134C84.5044 105.099 75.789 101.727 66.6642 100.228L57.8301 98.7781C50.7633 97.6179 43.5117 98.5414 36.9613 101.436C29.5293 104.72 23.3906 110.367 19.4999 117.5L16.2061 123.539C14.4116 126.829 13.106 130.363 12.3304 134.029L11.6948 137.034C9.39014 147.928 12.7496 159.25 20.6238 167.124C23.8397 170.34 27.6871 172.854 31.9234 174.509L57.5 184.5L79.8341 193.008C85.9245 195.328 91.7278 198.341 97.1297 201.988L107.745 209.153C108.578 209.715 109.328 210.39 109.975 211.158L117.611 220.225C120.534 223.696 118.066 229 113.528 229C113.177 229 112.826 229.035 112.482 229.104L85.5787 234.484C78.8848 235.823 72.3804 237.978 66.2112 240.9L61.473 243.144C51.9758 247.643 43.7571 254.449 37.5676 262.942L32.896 269.352C28.0896 275.947 25.5 283.897 25.5 292.057V296.593C25.5 304.797 29.0326 312.604 35.1954 318.02C39.6229 321.911 45.1468 324.335 51.0079 324.958L72.599 327.255C83.432 328.408 94.3855 327.467 104.863 324.484Z" fill="#DADADA" stroke="black"/>
<path d="M335.217 38.6111C294.695 24.5849 253.168 60.3475 249.82 100.648C248.224 96.0156 246.547 91.3825 244.658 86.8297C232.88 59.9155 218.914 31.6691 192.773 16.161C169.287 2.29928 125.329 -8.62547 104.264 13.7693C93.8111 26.5212 93.8527 44.3569 100.328 58.9008C114.669 87.0368 137.219 111.517 148.719 141.052C144.444 137.898 140.137 134.794 135.911 131.592C112.494 114.932 88.2988 95.5325 58.8653 92.0777C34.1085 88.1177 10.8674 105.339 4.58635 129.072C0.0348928 142.71 -0.960572 159.904 10.1782 170.687C25.13 183.124 45.5744 184.679 63.0996 191.828C80.3381 198.194 96.9327 208.347 110.896 220.435C111.511 220.977 112.142 221.567 112.756 222.157C87.306 221.984 57.9402 232.703 40.045 249.034C16.1778 272.207 3.68075 315.195 41.322 331.694C71.0109 345.011 103.802 332.948 132.447 322.484C141.424 318.509 151.894 317.62 160.339 312.877C160.928 312.377 161.388 311.713 161.719 311.015C171.241 324.944 183.704 337.25 199.312 344.093C247.153 361.326 305.719 341.936 331.603 297.622C347.495 269.985 347.483 235.829 342.061 205.215C336.297 181.677 334.726 156.641 346.463 134.554C352.482 120.47 361.813 107.531 364.667 92.3019C369.407 70.0075 356.598 46.4723 335.155 38.5613L335.217 38.6111ZM343.999 113.607C310.978 174 334.583 187.062 333.977 244.977C333.328 261.506 330.496 278.329 321.401 292.424C309.698 309.675 292.819 324.515 272.729 330.791C248.722 338.536 220.294 340.93 197.466 328.57C180.997 319.134 169.145 303.219 161.759 286.131C159.561 283.822 155.68 285 154.458 287.709C152.88 292.401 154.311 297.374 156.525 301.929C153.986 301.994 151.44 303.099 148.93 303.668C125.012 310.421 102.362 322.391 77.2204 324.254C36.293 326.775 13.0424 302.565 40.5797 265.928C55.3412 246.485 80.4698 238.828 103.527 234.607C108.574 234.219 113.117 233.843 118.357 233.83C120.114 233.793 122.015 234.229 123.727 233.866C126.409 236.716 129.222 239.404 132.461 241.671C133.819 243.015 136.076 243.73 137.825 242.619C141.473 239.764 136.924 233.907 135.321 230.397C128.222 221.269 119.899 212.913 110.704 205.853C90.8904 190.47 67.8044 179.98 43.6527 173.535C33.6861 169.887 19.1161 168.323 14.9284 157.132C9.96109 133.762 26.8288 103.723 52.6215 103.735C81.5389 103.688 106.035 122.308 128.327 138.781C132.479 140.893 145.141 152.647 153.418 155.86C153.941 158.028 154.381 160.195 154.741 162.41C156.497 167.418 164.982 168.81 166.275 162.814C165.911 149.354 159.457 136.487 153.99 124.359C144.869 106.429 133.069 90.06 121.807 73.4332C81.7542 14.3011 137.632 0.425225 184.761 23.8704C214.06 39.5617 226.967 72.7816 238.598 102.101C242.073 112.784 245.692 123.809 249.836 134.3C250.076 134.888 250.251 135.507 250.409 136.094C250.683 138.895 250.957 141.679 251.264 144.48C237.495 159.049 229.158 178.992 225.365 198.411C220.091 227.325 231.07 259.18 253.61 278.18C260.619 283.598 266.362 271.888 259.603 267.887C250.537 258.533 242.784 247.741 238.915 235.168C227.84 203.019 243.259 161.124 272.068 143.419C285.389 139.555 280.326 123.231 267.56 131.558C265.517 132.748 263.54 134.037 261.659 135.391C260.414 122.266 259.918 108.968 262.058 95.8987C266.774 58.0145 321.919 30.0763 348.342 63.988C359.61 79.6379 352.728 98.6305 343.968 113.657L343.999 113.607Z" fill="#2C3C98"/>
</svg>
