<svg width="230" height="162" viewBox="0 0 230 162" fill="none" xmlns="http://www.w3.org/2000/svg">
<path d="M221 127L219.78 127.971C194.864 147.788 159.456 147.382 135 127" stroke="#2C3C98" stroke-width="5" stroke-linecap="round"/>
<path d="M99 130L97.6955 130.949C72.3539 149.377 37.9225 148.991 13 130" stroke="#2C3C98" stroke-width="5" stroke-linecap="round"/>
<circle cx="177.203" cy="85.0117" r="50" transform="rotate(90.9292 177.203 85.0117)" fill="white" stroke="#2C3C98" stroke-width="5"/>
<circle cx="176.797" cy="110.008" r="25" transform="rotate(90.9292 176.797 110.008)" fill="#2C3C98" stroke="#2C3C98" stroke-width="5"/>
<circle cx="179.499" cy="97.5506" r="12.5" transform="rotate(90.9292 179.499 97.5506)" fill="white"/>
<circle cx="55.2025" cy="85.0117" r="50" transform="rotate(96.323 55.2025 85.0117)" fill="white" stroke="#2C3C98" stroke-width="5"/>
<circle cx="52.4492" cy="109.86" r="25" transform="rotate(96.323 52.4492 109.86)" fill="#2C3C98" stroke="#2C3C98" stroke-width="5"/>
<circle cx="56.3107" cy="97.711" r="12.5" transform="rotate(96.323 56.3107 97.711)" fill="white"/>
<path d="M12.2028 42.5183L13.2425 41.5368C37.3217 18.8067 75.2094 19.6903 98.2028 43.5183" stroke="#2C3C98" stroke-width="5" stroke-linecap="round"/>
<path d="M134.203 43.5299L135.242 42.5485C159.321 19.8184 197.209 20.702 220.203 44.5299" stroke="#2C3C98" stroke-width="5" stroke-linecap="round"/>
</svg>
