<svg width="227" height="174" viewBox="0 0 227 174" fill="none" xmlns="http://www.w3.org/2000/svg">
<circle cx="174.5" cy="85.0117" r="50" fill="white" stroke="#2C3C98" stroke-width="5"/>
<circle cx="199.5" cy="85.0117" r="25" fill="#2C3C98" stroke="#2C3C98" stroke-width="5"/>
<circle cx="187" cy="82.5117" r="12.5" fill="white" stroke="#2C3C98" stroke-width="5"/>
<circle cx="52.5" cy="85.0117" r="50" fill="white" stroke="#2C3C98" stroke-width="5"/>
<circle cx="77.5" cy="85.0117" r="25" fill="#2C3C98" stroke="#2C3C98" stroke-width="5"/>
<circle cx="65" cy="82.5117" r="12.5" fill="white" stroke="#2C3C98" stroke-width="5"/>
<path d="M9.50029 42.5183L10.54 41.5368C34.6192 18.8067 72.5069 19.6903 95.5003 43.5183" stroke="#2C3C98" stroke-width="5" stroke-linecap="round"/>
<path d="M131.5 43.5299L132.54 42.5485C156.619 19.8184 194.507 20.702 217.5 44.5299" stroke="#2C3C98" stroke-width="5" stroke-linecap="round"/>
<path d="M217.044 128.012L216.016 129.005C192.203 152.014 154.307 151.571 131.038 128.012" stroke="#2C3C98" stroke-width="5" stroke-linecap="round"/>
<path d="M95.5058 131.012L94.4776 132.005C70.6643 155.014 32.7689 154.571 9.49998 131.012" stroke="#2C3C98" stroke-width="5" stroke-linecap="round"/>
</svg>
