<svg width="81" height="87" viewBox="0 0 81 87" fill="none" xmlns="http://www.w3.org/2000/svg">
<mask id="path-1-inside-1_35_22" fill="white">
<path d="M9.71246 34.4967C12.5914 33.4967 15.5641 33.1451 18.5211 33.3053C26.7203 21.0553 43.8411 5.19634 58.0991 1.13334C64.1577 -0.0775638 71.4081 -1.20646 76.7011 2.75444C83.1308 8.79354 80.1699 17.9454 73.9628 22.9024C67.8925 28.6212 59.8218 31.4415 52.9508 35.9534C59.2399 36.0238 65.7318 41.0745 66.7708 47.2424C66.8294 47.6838 66.8606 48.1331 66.8801 48.594C67.3294 48.4925 67.802 48.4651 68.2004 48.5237C77.3996 48.3753 79.2314 57.8128 77.6223 65.1327C75.9035 73.4843 69.8215 82.5547 60.7513 83.5547C57.3099 83.7852 54.7904 82.6055 53.0911 80.6445C52.6615 81.1445 52.1693 81.5937 51.7903 81.9648C46.5911 87.0039 38.8803 87.164 32.0993 86.3945C22.1188 85.4727 13.4783 80.5429 7.57934 72.4455C4.16914 68.5666 1.88794 63.8752 0.868439 58.8165C-1.36986 50.1368 0.427031 38.1875 9.69654 34.4885L9.71246 34.4967ZM53.6345 31.9967C59.9626 28.3873 66.8645 25.6061 72.2635 20.5747C77.1619 16.7349 79.7244 9.71574 74.3533 5.10574C69.0838 1.94554 62.3413 3.25414 56.7123 4.69558C44.7903 9.28538 35.0913 18.2656 26.4823 27.4656C24.7128 29.4265 23.0018 31.4265 21.4511 33.6375C27.7519 34.7078 33.7791 38.0164 38.3491 42.368C39.1108 43.0984 39.8374 43.8797 40.5288 44.6961C41.0092 43.7859 41.6382 42.907 41.978 42.3953C45.0288 38.1258 49.1772 34.7351 53.626 31.9973L53.6345 31.9967ZM53.4938 72.5477C53.5446 82.5165 63.7948 82.0086 69.1228 76.036C71.6228 73.0672 73.6736 69.6063 74.5447 65.798C75.4041 61.3761 76.0642 54.997 71.3845 52.528C69.7829 51.5398 68.0251 51.8483 66.7126 51.8171C65.6735 59.1882 60.3923 67.1761 53.5916 70.0281C53.5526 70.8875 53.3807 71.7898 53.4901 72.5593L53.4938 72.5477ZM63.3649 53.9887C64.3961 50.3676 64.1931 46.2778 61.4743 43.4297C58.6931 40.8594 54.8845 38.5703 50.9743 39.2695C49.1735 39.5313 47.7829 40.7304 46.2634 41.6093C45.0446 42.9999 43.8923 44.4609 43.0251 46.0898C42.8259 46.4492 42.6462 46.8281 42.3962 47.1484C42.6462 47.5195 42.8767 47.8867 43.1072 48.2773C43.4783 47.7266 43.8884 47.2187 44.4158 46.8476C45.576 46.3281 46.4549 47.707 45.9353 48.707C45.4353 49.6953 44.7634 50.5859 44.1345 51.5078C44.0446 51.6367 43.9548 51.7578 43.8727 51.8867C43.6423 52.2266 43.4313 52.5664 43.2321 52.9258C43.2321 52.9258 43.2321 52.9376 43.2204 52.9454C42.9704 53.3165 42.7321 53.6954 42.4899 54.0743C40.5993 57.1251 39.2399 60.336 40.6383 63.2227C40.7165 63.3946 40.818 63.5742 40.9196 63.7422V63.7617C41.029 63.9336 41.1501 64.1133 41.279 64.2813C41.3102 64.3203 41.3493 64.3711 41.3805 64.4102C41.5211 64.5821 41.6618 64.75 41.8219 64.9219C41.8219 64.9219 41.8337 64.9336 41.8415 64.9414C42.0016 65.1016 42.1696 65.2617 42.3532 65.4219C42.5719 65.6211 42.8141 65.8203 43.0837 66.0235C51.654 72.254 61.3217 62.2149 63.3537 54.0035L63.3649 53.9887ZM9.18494 69.5197C12.6849 74.0783 16.8958 78.2814 22.2749 80.5197C29.7358 83.3908 41.2439 85.34 48.3529 80.7893C49.3412 80.1096 50.2631 79.3205 51.0521 78.4104C51.1615 78.2385 51.2904 78.0705 51.431 77.8987C50.5717 75.8206 50.2904 73.3675 50.5209 70.9182C49.2709 71.1291 47.9897 71.1682 46.6928 70.9885C44.1733 70.7385 41.724 69.4573 39.9116 67.6096C38.56 68.4807 37.021 69.0705 35.3608 69.2815C29.4702 70.0002 24.5408 65.9807 20.0798 62.7229C16.861 60.1643 13.5212 57.8713 10.5681 54.9924C9.22829 54.0939 9.20869 51.4026 11.2282 51.7033C12.9899 52.7736 14.4001 54.383 16.0798 55.5822C21.4392 59.3439 26.8889 65.2931 33.6109 66.0622C35.3297 66.0426 36.81 65.6833 38.0522 65.0817C37.0327 63.1403 36.6616 60.9098 37.3335 58.6715C38.1616 55.9332 39.7749 53.4918 41.2827 51.0699C41.0014 50.5504 40.7046 50.0308 40.3413 49.5308C36.1811 43.4214 29.5913 38.8828 22.3923 37.2028C13.5837 35.2926 4.96229 37.4137 3.26329 47.4018C1.89219 55.0815 4.19298 63.5228 9.18519 69.5108L9.18494 69.5197Z"/>
</mask>
<path d="M9.71246 34.4967C12.5914 33.4967 15.5641 33.1451 18.5211 33.3053C26.7203 21.0553 43.8411 5.19634 58.0991 1.13334C64.1577 -0.0775638 71.4081 -1.20646 76.7011 2.75444C83.1308 8.79354 80.1699 17.9454 73.9628 22.9024C67.8925 28.6212 59.8218 31.4415 52.9508 35.9534C59.2399 36.0238 65.7318 41.0745 66.7708 47.2424C66.8294 47.6838 66.8606 48.1331 66.8801 48.594C67.3294 48.4925 67.802 48.4651 68.2004 48.5237C77.3996 48.3753 79.2314 57.8128 77.6223 65.1327C75.9035 73.4843 69.8215 82.5547 60.7513 83.5547C57.3099 83.7852 54.7904 82.6055 53.0911 80.6445C52.6615 81.1445 52.1693 81.5937 51.7903 81.9648C46.5911 87.0039 38.8803 87.164 32.0993 86.3945C22.1188 85.4727 13.4783 80.5429 7.57934 72.4455C4.16914 68.5666 1.88794 63.8752 0.868439 58.8165C-1.36986 50.1368 0.427031 38.1875 9.69654 34.4885L9.71246 34.4967ZM53.6345 31.9967C59.9626 28.3873 66.8645 25.6061 72.2635 20.5747C77.1619 16.7349 79.7244 9.71574 74.3533 5.10574C69.0838 1.94554 62.3413 3.25414 56.7123 4.69558C44.7903 9.28538 35.0913 18.2656 26.4823 27.4656C24.7128 29.4265 23.0018 31.4265 21.4511 33.6375C27.7519 34.7078 33.7791 38.0164 38.3491 42.368C39.1108 43.0984 39.8374 43.8797 40.5288 44.6961C41.0092 43.7859 41.6382 42.907 41.978 42.3953C45.0288 38.1258 49.1772 34.7351 53.626 31.9973L53.6345 31.9967ZM53.4938 72.5477C53.5446 82.5165 63.7948 82.0086 69.1228 76.036C71.6228 73.0672 73.6736 69.6063 74.5447 65.798C75.4041 61.3761 76.0642 54.997 71.3845 52.528C69.7829 51.5398 68.0251 51.8483 66.7126 51.8171C65.6735 59.1882 60.3923 67.1761 53.5916 70.0281C53.5526 70.8875 53.3807 71.7898 53.4901 72.5593L53.4938 72.5477ZM63.3649 53.9887C64.3961 50.3676 64.1931 46.2778 61.4743 43.4297C58.6931 40.8594 54.8845 38.5703 50.9743 39.2695C49.1735 39.5313 47.7829 40.7304 46.2634 41.6093C45.0446 42.9999 43.8923 44.4609 43.0251 46.0898C42.8259 46.4492 42.6462 46.8281 42.3962 47.1484C42.6462 47.5195 42.8767 47.8867 43.1072 48.2773C43.4783 47.7266 43.8884 47.2187 44.4158 46.8476C45.576 46.3281 46.4549 47.707 45.9353 48.707C45.4353 49.6953 44.7634 50.5859 44.1345 51.5078C44.0446 51.6367 43.9548 51.7578 43.8727 51.8867C43.6423 52.2266 43.4313 52.5664 43.2321 52.9258C43.2321 52.9258 43.2321 52.9376 43.2204 52.9454C42.9704 53.3165 42.7321 53.6954 42.4899 54.0743C40.5993 57.1251 39.2399 60.336 40.6383 63.2227C40.7165 63.3946 40.818 63.5742 40.9196 63.7422V63.7617C41.029 63.9336 41.1501 64.1133 41.279 64.2813C41.3102 64.3203 41.3493 64.3711 41.3805 64.4102C41.5211 64.5821 41.6618 64.75 41.8219 64.9219C41.8219 64.9219 41.8337 64.9336 41.8415 64.9414C42.0016 65.1016 42.1696 65.2617 42.3532 65.4219C42.5719 65.6211 42.8141 65.8203 43.0837 66.0235C51.654 72.254 61.3217 62.2149 63.3537 54.0035L63.3649 53.9887ZM9.18494 69.5197C12.6849 74.0783 16.8958 78.2814 22.2749 80.5197C29.7358 83.3908 41.2439 85.34 48.3529 80.7893C49.3412 80.1096 50.2631 79.3205 51.0521 78.4104C51.1615 78.2385 51.2904 78.0705 51.431 77.8987C50.5717 75.8206 50.2904 73.3675 50.5209 70.9182C49.2709 71.1291 47.9897 71.1682 46.6928 70.9885C44.1733 70.7385 41.724 69.4573 39.9116 67.6096C38.56 68.4807 37.021 69.0705 35.3608 69.2815C29.4702 70.0002 24.5408 65.9807 20.0798 62.7229C16.861 60.1643 13.5212 57.8713 10.5681 54.9924C9.22829 54.0939 9.20869 51.4026 11.2282 51.7033C12.9899 52.7736 14.4001 54.383 16.0798 55.5822C21.4392 59.3439 26.8889 65.2931 33.6109 66.0622C35.3297 66.0426 36.81 65.6833 38.0522 65.0817C37.0327 63.1403 36.6616 60.9098 37.3335 58.6715C38.1616 55.9332 39.7749 53.4918 41.2827 51.0699C41.0014 50.5504 40.7046 50.0308 40.3413 49.5308C36.1811 43.4214 29.5913 38.8828 22.3923 37.2028C13.5837 35.2926 4.96229 37.4137 3.26329 47.4018C1.89219 55.0815 4.19298 63.5228 9.18519 69.5108L9.18494 69.5197Z" fill="white"/>
<path d="M9.71246 34.4967L11.3531 39.2199L9.32729 39.9236L7.4212 38.9408L9.71246 34.4967ZM18.5211 33.3053L22.6762 36.0865L21.0929 38.452L18.2506 38.298L18.5211 33.3053ZM58.0991 1.13334L56.7288 -3.67524L56.9221 -3.73031L57.1191 -3.76969L58.0991 1.13334ZM76.7011 2.75444L79.6968 -1.24877L79.9205 -1.08136L80.1242 -0.890064L76.7011 2.75444ZM73.9628 22.9024L70.5342 19.2631L70.6829 19.123L70.8426 18.9954L73.9628 22.9024ZM52.9508 35.9534L52.8949 40.9531L36.5067 40.7699L50.2063 31.774L52.9508 35.9534ZM66.7708 47.2424L71.7013 46.4119L71.7158 46.498L71.7273 46.5845L66.7708 47.2424ZM66.8801 48.594L67.9827 53.471L62.1383 54.7923L61.8846 48.8057L66.8801 48.594ZM68.2004 48.5237L68.2811 53.5231L67.8749 53.5296L67.4729 53.4705L68.2004 48.5237ZM77.6223 65.1327L72.725 64.1248L72.7317 64.092L72.7389 64.0592L77.6223 65.1327ZM60.7513 83.5547L61.2993 88.5246L61.1926 88.5364L61.0854 88.5435L60.7513 83.5547ZM53.0911 80.6445L49.2991 77.3857L53.0754 72.9914L56.8698 77.3701L53.0911 80.6445ZM51.7903 81.9648L55.2887 85.5371L55.2795 85.5462L55.2702 85.5552L51.7903 81.9648ZM32.0993 86.3945L32.5592 81.4157L32.6112 81.4205L32.6631 81.4264L32.0993 86.3945ZM7.57934 72.4455L11.3345 69.1441L11.4857 69.3162L11.6206 69.5014L7.57934 72.4455ZM0.868439 58.8165L5.71004 57.568L5.74345 57.6975L5.76989 57.8287L0.868439 58.8165ZM9.69654 34.4885L7.84339 29.8446L9.96115 28.9995L11.9878 30.0444L9.69654 34.4885ZM53.6345 31.9967L56.1117 36.3399L55.1069 36.913L53.9525 36.9866L53.6345 31.9967ZM72.2635 20.5747L68.8546 16.9169L69.0108 16.7713L69.1788 16.6397L72.2635 20.5747ZM74.3533 5.10574L76.9248 0.817733L77.2882 1.03566L77.6097 1.31162L74.3533 5.10574ZM56.7123 4.69558L54.9159 0.0294279L55.1887 -0.0756098L55.4719 -0.148134L56.7123 4.69558ZM26.4823 27.4656L22.7702 24.1159L22.8005 24.0823L22.8314 24.0493L26.4823 27.4656ZM21.4511 33.6375L20.6137 38.5669L12.8157 37.2422L17.3575 30.7664L21.4511 33.6375ZM38.3491 42.368L41.797 38.747L41.8034 38.7531L41.8098 38.7592L38.3491 42.368ZM40.5288 44.6961L44.9505 47.0303L41.4957 53.5746L36.7132 47.9274L40.5288 44.6961ZM41.978 42.3953L37.8127 39.6293L37.8601 39.558L37.9098 39.4884L41.978 42.3953ZM53.626 31.9973L51.0054 27.739L52.0656 27.0866L53.3079 27.0074L53.626 31.9973ZM53.4938 72.5477L48.7385 71.0029L58.4938 72.5223L53.4938 72.5477ZM69.1228 76.036L72.9474 79.2567L72.9015 79.3113L72.854 79.3645L69.1228 76.036ZM74.5447 65.798L79.4529 66.7519L79.4372 66.8327L79.4189 66.9129L74.5447 65.798ZM71.3845 52.528L69.0514 56.9503L68.9023 56.8716L68.7589 56.7831L71.3845 52.528ZM66.7126 51.8171L61.7616 51.1192L62.3828 46.7126L66.8317 46.8185L66.7126 51.8171ZM53.5916 70.0281L48.5968 69.8011L48.7405 66.6407L51.658 65.4172L53.5916 70.0281ZM53.4901 72.5593L58.2454 74.1042L48.5398 73.263L53.4901 72.5593ZM63.3649 53.9887L68.1738 55.3582L67.9129 56.2743L67.3334 57.0304L63.3649 53.9887ZM61.4743 43.4297L64.8679 39.7577L64.9829 39.864L65.0911 39.9773L61.4743 43.4297ZM50.9743 39.2695L51.8545 44.1915L51.7742 44.2058L51.6935 44.2176L50.9743 39.2695ZM46.2634 41.6093L42.5033 38.3137L43.0465 37.6939L43.76 37.2812L46.2634 41.6093ZM43.0251 46.0898L47.4386 48.4395L47.4187 48.4769L47.3982 48.514L43.0251 46.0898ZM42.3962 47.1484L38.2495 49.9421L36.2221 46.9327L38.4546 44.0721L42.3962 47.1484ZM43.1072 48.2773L47.2538 51.0711L42.8269 57.6417L38.8008 50.8181L43.1072 48.2773ZM44.4158 46.8476L41.5383 42.7586L41.9324 42.4812L42.3723 42.2843L44.4158 46.8476ZM45.9353 48.707L41.4738 46.4498L41.486 46.4257L41.4984 46.4017L45.9353 48.707ZM44.1345 51.5078L48.2649 54.3255L48.2508 54.3462L48.2365 54.3667L44.1345 51.5078ZM43.8727 51.8867L48.0911 54.571L48.0519 54.6327L48.0109 54.6931L43.8727 51.8867ZM43.2321 52.9258L38.2321 52.9255L38.2322 51.6326L38.859 50.5018L43.2321 52.9258ZM43.2204 52.9454L39.0736 50.1517L39.6253 49.3328L40.4469 48.7851L43.2204 52.9454ZM42.4899 54.0743L38.2399 51.4405L38.2582 51.4108L38.277 51.3814L42.4899 54.0743ZM40.6383 63.2227L45.1381 61.0428L45.1648 61.0979L45.1902 61.1537L40.6383 63.2227ZM40.9196 63.7422L45.1983 61.1552L45.9196 62.3481V63.7422H40.9196ZM40.9196 63.7617L36.7013 66.4461L35.9196 65.2178V63.7617H40.9196ZM41.279 64.2813L37.3746 67.4048L37.3431 67.3654L37.3124 67.3254L41.279 64.2813ZM41.3805 64.4102L37.5106 67.5762L37.4932 67.5549L37.4759 67.5334L41.3805 64.4102ZM41.8219 64.9219L38.2862 68.4573L38.2239 68.395L38.1639 68.3305L41.8219 64.9219ZM41.8415 64.9414L45.3768 61.4057L45.377 61.4059L41.8415 64.9414ZM42.3532 65.4219L45.64 61.654L45.6803 61.6892L45.7198 61.7252L42.3532 65.4219ZM43.0837 66.0235L40.1436 70.0677L40.1088 70.0424L40.0744 70.0165L43.0837 66.0235ZM63.3537 54.0035L58.5001 52.8024L58.7506 51.7898L59.3852 50.9618L63.3537 54.0035ZM9.18494 69.5197L5.21905 72.5647L4.13837 71.1571L4.18681 69.3833L9.18494 69.5197ZM22.2749 80.5197L20.4792 85.1861L20.4163 85.1619L20.354 85.136L22.2749 80.5197ZM48.3529 80.7893L51.1863 84.909L51.1182 84.9558L51.0486 85.0004L48.3529 80.7893ZM51.0521 78.4104L55.2704 81.0948L55.0721 81.4065L54.8301 81.6856L51.0521 78.4104ZM51.431 77.8987L56.0515 75.9879L57.1941 78.7508L55.3008 81.0648L51.431 77.8987ZM50.5209 70.9182L49.6889 65.9879L56.1088 64.9045L55.4989 71.3865L50.5209 70.9182ZM46.6928 70.9885L47.1865 66.0129L47.283 66.0225L47.379 66.0358L46.6928 70.9885ZM39.9116 67.6096L37.203 63.4068L40.6278 61.1995L43.4811 64.1083L39.9116 67.6096ZM35.3608 69.2815L35.9912 74.2416L35.9788 74.2431L35.9664 74.2447L35.3608 69.2815ZM20.0798 62.7229L17.131 66.7607L17.0485 66.7005L16.9685 66.6369L20.0798 62.7229ZM10.5681 54.9924L13.3528 50.8396L13.7317 51.0937L14.0584 51.4121L10.5681 54.9924ZM11.2282 51.7033L11.9646 46.7578L12.9623 46.9063L13.8244 47.4301L11.2282 51.7033ZM16.0798 55.5822L13.2074 59.6747L13.1909 59.6632L13.1746 59.6515L16.0798 55.5822ZM33.6109 66.0622L33.6677 71.0618L33.3541 71.0654L33.0425 71.0298L33.6109 66.0622ZM38.0522 65.0817L42.479 62.7571L44.8806 67.3304L40.2315 69.5818L38.0522 65.0817ZM37.3335 58.6715L32.5446 57.234L32.5476 57.2241L37.3335 58.6715ZM41.2827 51.0699L45.6797 48.6895L47.0633 51.2453L45.5273 53.7125L41.2827 51.0699ZM40.3413 49.5308L36.2963 52.4698L36.2514 52.4081L36.2085 52.345L40.3413 49.5308ZM22.3923 37.2028L23.4519 32.3164L23.4903 32.3247L23.5286 32.3336L22.3923 37.2028ZM3.26329 47.4018L8.19248 48.2403L8.18906 48.2604L8.18546 48.2806L3.26329 47.4018ZM9.18519 69.5108L13.0256 66.309L14.2349 67.7595L14.1833 69.6473L9.18519 69.5108ZM9.71246 34.4967L8.07185 29.7736C11.626 28.539 15.2547 28.121 18.7915 28.3127L18.5211 33.3053L18.2506 38.298C15.8734 38.1692 13.5568 38.4545 11.3531 39.2199L9.71246 34.4967ZM18.5211 33.3053L14.3659 30.5242C18.7593 23.9603 25.4168 16.5938 32.8061 10.3341C40.1364 4.12446 48.6183 -1.36404 56.7288 -3.67524L58.0991 1.13334L59.4693 5.94191C53.3219 7.69371 46.1143 12.1662 39.2699 17.9643C32.4846 23.7123 26.482 30.4004 22.6762 36.0865L18.5211 33.3053ZM58.0991 1.13334L57.1191 -3.76969C60.1653 -4.37853 63.9596 -5.06741 67.7823 -4.99463C71.656 -4.92088 75.9369 -4.06242 79.6968 -1.24877L76.7011 2.75444L73.7053 6.75765C72.1723 5.61039 70.1814 5.05286 67.592 5.00356C64.9516 4.95329 62.0914 5.4343 59.079 6.03637L58.0991 1.13334ZM76.7011 2.75444L80.1242 -0.890064C84.7206 3.42717 85.9838 9.022 84.9787 14.1889C84.0103 19.1677 80.986 23.6924 77.0829 26.8094L73.9628 22.9024L70.8426 18.9954C73.1466 17.1555 74.7063 14.6257 75.1627 12.2796C75.5825 10.1215 75.1112 8.1208 73.278 6.39894L76.7011 2.75444ZM73.9628 22.9024L77.3914 26.5418C73.8733 29.8561 69.8746 32.2381 66.1522 34.2695C62.2596 36.3938 58.9037 38.026 55.6952 40.1329L52.9508 35.9534L50.2063 31.774C53.8688 29.369 57.9838 27.3351 61.3618 25.4916C64.9101 23.5551 67.9819 21.6676 70.5342 19.2631L73.9628 22.9024ZM52.9508 35.9534L53.0067 30.9538C57.4252 31.0032 61.6787 32.7729 64.9636 35.4155C68.2465 38.0564 70.9377 41.879 71.7013 46.4119L66.7708 47.2424L61.8402 48.073C61.5648 46.438 60.4906 44.6513 58.6955 43.2072C56.9025 41.7648 54.7654 40.974 52.8949 40.9531L52.9508 35.9534ZM66.7708 47.2424L71.7273 46.5845C71.8128 47.2288 71.8527 47.84 71.8757 48.3823L66.8801 48.594L61.8846 48.8057C61.8685 48.4261 61.8459 48.1389 61.8142 47.9004L66.7708 47.2424ZM66.8801 48.594L65.7776 43.7171C66.7151 43.5052 67.8161 43.4134 68.928 43.5769L68.2004 48.5237L67.4729 53.4705C67.6538 53.4971 67.7753 53.4945 67.8313 53.4914C67.8922 53.4881 67.9395 53.4807 67.9827 53.471L66.8801 48.594ZM68.2004 48.5237L68.1198 43.5244C71.3138 43.4728 74.1922 44.2626 76.5892 45.8908C78.9609 47.5018 80.5506 49.7212 81.5544 52.0445C83.5031 56.5548 83.456 61.8833 82.5057 66.2062L77.6223 65.1327L72.7389 64.0592C73.3977 61.0623 73.2393 58.012 72.3746 56.0107C71.9717 55.0782 71.4791 54.5085 70.9704 54.163C70.487 53.8346 69.6867 53.5004 68.2811 53.5231L68.2004 48.5237ZM77.6223 65.1327L82.5197 66.1406C81.5111 71.0413 79.2319 76.1725 75.7818 80.305C72.3148 84.4577 67.4348 87.8482 61.2993 88.5246L60.7513 83.5547L60.2034 78.5848C63.1381 78.2613 65.8342 76.6166 68.1054 73.8961C70.3936 71.1555 72.0148 67.5758 72.725 64.1248L77.6223 65.1327ZM60.7513 83.5547L61.0854 88.5435C56.1774 88.8722 52.1004 87.1362 49.3125 83.9189L53.0911 80.6445L56.8698 77.3701C57.4805 78.0748 58.4425 78.6982 60.4172 78.5659L60.7513 83.5547ZM53.0911 80.6445L56.8832 83.9034C56.2675 84.6199 55.4988 85.3314 55.2887 85.5371L51.7903 81.9648L48.292 78.3925C48.4069 78.28 48.5298 78.1621 48.6266 78.069C48.7312 77.9683 48.8219 77.8807 48.9095 77.7943C49.0872 77.619 49.2102 77.4891 49.2991 77.3857L53.0911 80.6445ZM51.7903 81.9648L55.2702 85.5552C48.2883 92.3221 38.4138 92.1432 31.5356 91.3626L32.0993 86.3945L32.6631 81.4264C39.3469 82.1849 44.894 81.6858 48.3105 78.3745L51.7903 81.9648ZM32.0993 86.3945L31.6395 91.3733C20.2217 90.3187 10.2792 84.643 3.53803 75.3896L7.57934 72.4455L11.6206 69.5014C16.6775 76.4428 24.016 80.6266 32.5592 81.4157L32.0993 86.3945ZM7.57934 72.4455L3.82422 75.7469C-0.181015 71.1912 -2.84569 65.6958 -4.03301 59.8043L0.868439 58.8165L5.76989 57.8287C6.62157 62.0547 8.51929 65.9421 11.3345 69.1441L7.57934 72.4455ZM0.868439 58.8165L-3.97317 60.0651C-5.28725 54.9693 -5.44451 48.8872 -3.83137 43.3794C-2.19872 37.805 1.40752 32.4129 7.84339 29.8446L9.69654 34.4885L11.5497 39.1324C8.71605 40.2632 6.78909 42.6952 5.76549 46.1901C4.72239 49.7516 4.78582 53.984 5.71004 57.568L0.868439 58.8165ZM9.69654 34.4885L11.9878 30.0444L12.0037 30.0526L9.71246 34.4967L7.4212 38.9408L7.40528 38.9326L9.69654 34.4885ZM53.6345 31.9967L51.1572 27.6536C52.8289 26.7001 54.5218 25.8107 56.1406 24.9651C57.7838 24.1067 59.3414 23.2981 60.8666 22.4496C63.911 20.756 66.5849 19.0321 68.8546 16.9169L72.2635 20.5747L75.6723 24.2326C72.543 27.1488 69.0664 29.3312 65.7281 31.1884C64.0619 32.1153 62.3701 32.9932 60.7707 33.8286C59.147 34.6769 57.6041 35.4887 56.1117 36.3399L53.6345 31.9967ZM72.2635 20.5747L69.1788 16.6397C70.8853 15.3019 71.9653 13.5557 72.2631 12.1161C72.5051 10.9466 72.2969 9.92989 71.0968 8.89985L74.3533 5.10574L77.6097 1.31162C81.7807 4.89158 82.9769 9.6895 82.0557 14.142C81.1905 18.3244 78.54 22.0077 75.3481 24.5098L72.2635 20.5747ZM74.3533 5.10574L71.7817 9.39374C70.249 8.47455 68.306 8.08122 65.8517 8.17165C63.3676 8.26318 60.7075 8.83382 57.9526 9.53929L56.7123 4.69558L55.4719 -0.148134C58.346 -0.884109 61.8717 -1.68849 65.4835 -1.82157C69.125 -1.95575 73.1881 -1.42328 76.9248 0.817733L74.3533 5.10574ZM56.7123 4.69558L58.5087 9.36173C47.7072 13.5201 38.6571 21.7728 30.1331 30.8819L26.4823 27.4656L22.8314 24.0493C31.5255 14.7583 41.8733 5.05062 54.9159 0.0294279L56.7123 4.69558ZM26.4823 27.4656L30.1943 30.8153C28.4754 32.7202 26.922 34.5446 25.5446 36.5085L21.4511 33.6375L17.3575 30.7664C19.0815 28.3084 20.9502 26.1328 22.7702 24.1159L26.4823 27.4656ZM21.4511 33.6375L22.2884 28.7081C29.6965 29.9665 36.6051 33.8032 41.797 38.747L38.3491 42.368L34.9011 45.989C30.953 42.2295 25.8072 39.4491 20.6137 38.5669L21.4511 33.6375ZM38.3491 42.368L41.8098 38.7592C42.7096 39.6221 43.5539 40.5314 44.3443 41.4647L40.5288 44.6961L36.7132 47.9274C36.1208 47.2279 35.512 46.5748 34.8883 45.9768L38.3491 42.368ZM40.5288 44.6961L36.1071 42.3619C36.7424 41.1584 37.6063 39.9402 37.8127 39.6293L41.978 42.3953L46.1432 45.1613C46.0409 45.3153 45.9132 45.5025 45.8147 45.6478C45.7054 45.8091 45.5984 45.9681 45.4915 46.1316C45.2725 46.4667 45.0884 46.769 44.9505 47.0303L40.5288 44.6961ZM41.978 42.3953L37.9098 39.4884C41.4693 34.507 46.1981 30.6975 51.0054 27.739L53.626 31.9973L56.2465 36.2555C52.1562 38.7727 48.5882 41.7446 46.0461 45.3022L41.978 42.3953ZM53.626 31.9973L53.3079 27.0074L53.3164 27.0069L53.6345 31.9967L53.9525 36.9866L53.944 36.9872L53.626 31.9973ZM53.4938 72.5477L58.4938 72.5223C58.5022 74.167 58.9196 74.7819 59.0483 74.9363C59.1557 75.0651 59.3575 75.2401 59.9014 75.3027C61.2321 75.456 63.6011 74.7148 65.3917 72.7076L69.1228 76.036L72.854 79.3645C69.3165 83.3299 63.8965 85.8289 58.7573 85.2371C56.0664 84.9272 53.3631 83.7333 51.3678 81.3402C49.3938 78.9728 48.5109 75.9129 48.4939 72.5732L53.4938 72.5477ZM69.1228 76.036L65.2983 72.8154C67.4618 70.2461 69.0291 67.4876 69.6706 64.6832L74.5447 65.798L79.4189 66.9129C78.3181 71.7251 75.7838 75.8884 72.9474 79.2567L69.1228 76.036ZM74.5447 65.798L69.6366 64.8442C70.0463 62.7359 70.2888 60.6887 70.0818 59.0618C69.8884 57.5421 69.4352 57.1528 69.0514 56.9503L71.3845 52.528L73.7177 48.1058C78.0135 50.3723 79.5702 54.4071 80.0018 57.7996C80.4198 61.085 79.9025 64.4383 79.4529 66.7519L74.5447 65.798ZM71.3845 52.528L68.7589 56.7831C68.895 56.8671 68.9454 56.8238 68.6279 56.8039C68.4527 56.793 68.239 56.7925 67.8925 56.8009C67.6225 56.8075 67.0794 56.8272 66.5936 56.8157L66.7126 51.8171L66.8317 46.8185C67.0022 46.8226 67.1709 46.8155 67.6497 46.8039C68.0521 46.7941 68.6239 46.7841 69.2525 46.8234C70.5424 46.9042 72.2725 47.2007 74.0102 48.2729L71.3845 52.528ZM66.7126 51.8171L71.6637 52.515C70.4281 61.2797 64.2536 70.9787 55.5253 74.639L53.5916 70.0281L51.658 65.4172C56.5311 63.3735 60.9189 57.0967 61.7616 51.1192L66.7126 51.8171ZM53.5916 70.0281L58.5865 70.2551C58.5714 70.5875 58.5448 70.8969 58.5231 71.1335C58.498 71.4081 58.4835 71.5479 58.4694 71.7243C58.4412 72.0785 58.4668 72.0417 58.4403 71.8557L53.4901 72.5593L48.5398 73.263C48.404 72.3074 48.4608 71.4347 48.501 70.9305C48.5588 70.2046 48.5812 70.1445 48.5968 69.8011L53.5916 70.0281ZM53.4901 72.5593L48.7347 71.0144L48.7385 71.0029L53.4938 72.5477L58.2492 74.0926L58.2454 74.1042L53.4901 72.5593ZM63.3649 53.9887L58.5561 52.6193C59.3312 49.8977 58.8673 47.9399 57.8576 46.8822L61.4743 43.4297L65.0911 39.9773C69.5188 44.6157 69.4611 50.8376 68.1738 55.3582L63.3649 53.9887ZM61.4743 43.4297L58.0808 47.1018C55.5866 44.7967 53.35 43.924 51.8545 44.1915L50.9743 39.2695L50.0942 34.3476C56.4191 33.2166 61.7997 36.9222 64.8679 39.7577L61.4743 43.4297ZM50.9743 39.2695L51.6935 44.2176C51.6929 44.2176 51.6831 44.219 51.6616 44.225C51.6395 44.2312 51.603 44.2428 51.5494 44.2642C51.4367 44.3093 51.2716 44.3884 51.0221 44.5331C50.7607 44.6847 50.4881 44.8596 50.0979 45.1113C49.7423 45.3407 49.2692 45.6469 48.7669 45.9375L46.2634 41.6093L43.76 37.2812C44.0174 37.1323 44.2879 36.9591 44.6768 36.7082C45.0309 36.4797 45.5034 36.1736 46.0048 35.8829C47.0195 35.2943 48.454 34.5833 50.2552 34.3215L50.9743 39.2695ZM46.2634 41.6093L50.0236 44.905C48.8973 46.19 48.0383 47.3132 47.4386 48.4395L43.0251 46.0898L38.6116 43.7402C39.7464 41.6087 41.192 39.8099 42.5033 38.3137L46.2634 41.6093ZM43.0251 46.0898L47.3982 48.514C47.37 48.5648 47.3413 48.6186 47.2857 48.7223C47.2375 48.8124 47.1664 48.945 47.0876 49.0851C46.9321 49.3616 46.6841 49.7811 46.3378 50.2247L42.3962 47.1484L38.4546 44.0721C38.3584 44.1954 38.3252 44.2653 38.3719 44.1825C38.3941 44.1429 38.4209 44.0934 38.4702 44.0014C38.5123 43.9229 38.5806 43.7946 38.6521 43.6657L43.0251 46.0898ZM42.3962 47.1484L46.543 44.3548C46.8534 44.8156 47.1369 45.2677 47.4135 45.7366L43.1072 48.2773L38.8008 50.8181C38.6165 50.5057 38.439 50.2234 38.2495 49.9421L42.3962 47.1484ZM43.1072 48.2773L38.9605 45.4835C39.4591 44.7435 40.2746 43.6479 41.5383 42.7586L44.4158 46.8476L47.2932 50.9367C47.4091 50.8551 47.458 50.7965 47.4432 50.8132C47.436 50.8213 47.4163 50.8443 47.3833 50.888C47.3501 50.932 47.3078 50.9911 47.2538 51.0711L43.1072 48.2773ZM44.4158 46.8476L42.3723 42.2843C45.3821 40.9365 48.3226 42.2052 49.8234 44.2316C51.1396 46.0087 51.603 48.6433 50.3721 51.0124L45.9353 48.707L41.4984 46.4017C40.7871 47.7707 41.0709 49.2159 41.7875 50.1834C42.1834 50.7179 42.8346 51.2818 43.7677 51.5641C44.7589 51.864 45.7249 51.7398 46.4592 51.411L44.4158 46.8476ZM45.9353 48.707L50.3968 50.9642C49.7021 52.3373 48.7103 53.6727 48.2649 54.3255L44.1345 51.5078L40.004 48.6901C40.8165 47.4992 41.1684 47.0533 41.4738 46.4498L45.9353 48.707ZM44.1345 51.5078L48.2365 54.3667C48.2015 54.417 48.1689 54.463 48.1455 54.496C48.1186 54.5338 48.1051 54.5529 48.0908 54.5732C48.0639 54.6115 48.0715 54.6018 48.0911 54.571L43.8727 51.8867L39.6544 49.2025C39.756 49.0428 39.8496 48.9081 39.9106 48.8214C40.0097 48.6804 39.9799 48.7243 40.0324 48.6489L44.1345 51.5078ZM43.8727 51.8867L48.0109 54.6931C47.856 54.9215 47.725 55.1338 47.6052 55.3499L43.2321 52.9258L38.859 50.5018C39.1377 49.999 39.4285 49.5317 39.7346 49.0804L43.8727 51.8867ZM43.2321 52.9258C48.2321 52.9262 48.2321 52.9286 48.2321 52.9311C48.2321 52.9319 48.2321 52.9343 48.2321 52.936C48.2321 52.9392 48.2321 52.9425 48.2321 52.9458C48.2321 52.9524 48.232 52.959 48.232 52.9656C48.2319 52.9789 48.2317 52.9924 48.2315 53.006C48.231 53.0331 48.2304 53.0609 48.2295 53.0892C48.2276 53.1459 48.2247 53.2051 48.2205 53.2668C48.2121 53.3896 48.1984 53.5246 48.1766 53.6697C48.1336 53.956 48.0559 54.3054 47.9123 54.6884C47.6126 55.4875 47.0245 56.4185 45.9939 57.1056L43.2204 52.9454L40.4469 48.7851C39.428 49.4644 38.8458 50.3857 38.549 51.177C38.4069 51.556 38.3299 51.9021 38.2873 52.1859C38.2657 52.3298 38.252 52.4638 38.2437 52.586C38.2395 52.6473 38.2366 52.7063 38.2348 52.7627C38.2339 52.791 38.2332 52.8187 38.2328 52.8458C38.2325 52.8594 38.2324 52.8728 38.2323 52.8861C38.2322 52.8927 38.2322 52.8993 38.2322 52.9059C38.2321 52.9092 38.2321 52.9125 38.2321 52.9157C38.2321 52.9174 38.2321 52.9198 38.2321 52.9206C38.2321 52.9231 38.2321 52.9255 43.2321 52.9258ZM43.2204 52.9454L47.3672 55.739C47.1612 56.0447 46.9723 56.3455 46.7028 56.7671L42.4899 54.0743L38.277 51.3814C38.4919 51.0453 38.7796 50.5882 39.0736 50.1517L43.2204 52.9454ZM42.4899 54.0743L46.74 56.7081C45.8875 58.0837 45.3835 59.1461 45.1701 59.9673C44.9802 60.6981 45.0902 60.9438 45.1381 61.0428L40.6383 63.2227L36.1385 65.4025C33.4498 59.8522 36.4012 54.4075 38.2399 51.4405L42.4899 54.0743ZM40.6383 63.2227L45.1902 61.1537C45.177 61.1246 45.167 61.1045 45.1618 61.0942C45.1565 61.0838 45.1542 61.0797 45.1559 61.0828C45.1575 61.0857 45.1617 61.0932 45.1691 61.106C45.1765 61.1187 45.186 61.1349 45.1983 61.1552L40.9196 63.7422L36.6409 66.3292C36.4997 66.0958 36.283 65.7241 36.0865 65.2917L40.6383 63.2227ZM40.9196 63.7422H45.9196V63.7617H40.9196H35.9196V63.7422H40.9196ZM40.9196 63.7617L45.1379 61.0773C45.1681 61.1249 45.1929 61.1623 45.2128 61.1913C45.2331 61.2207 45.2439 61.2351 45.2455 61.2371L41.279 64.2813L37.3124 67.3254C37.0628 67.0002 36.8554 66.6883 36.7013 66.4461L40.9196 63.7617ZM41.279 64.2813L45.1833 61.1578C45.203 61.1824 45.2206 61.2047 45.2336 61.2213C45.2466 61.2377 45.2591 61.2538 45.2672 61.2641C45.2767 61.2763 45.2818 61.2827 45.286 61.288C45.2901 61.2933 45.2891 61.292 45.2851 61.287L41.3805 64.4102L37.4759 67.5334C37.4563 67.5088 37.4387 67.4865 37.4258 67.47C37.4129 67.4537 37.4003 67.4376 37.3923 67.4273C37.3828 67.4152 37.3778 67.4088 37.3736 67.4035C37.3696 67.3984 37.3706 67.3997 37.3746 67.4048L41.279 64.2813ZM41.3805 64.4102L45.2504 61.2441C45.3705 61.3908 45.4306 61.4603 45.48 61.5133L41.8219 64.9219L38.1639 68.3305C37.8929 68.0397 37.6718 67.7733 37.5106 67.5762L41.3805 64.4102ZM41.8219 64.9219C45.3576 61.3865 45.3576 61.3865 45.3576 61.3865C45.3576 61.3865 45.3576 61.3865 45.3576 61.3865C45.3576 61.3865 45.3576 61.3865 45.3576 61.3865C45.3576 61.3865 45.3576 61.3865 45.3576 61.3865C45.3576 61.3865 45.3576 61.3865 45.3576 61.3866C45.3577 61.3866 45.3577 61.3866 45.3577 61.3866C45.3578 61.3867 45.358 61.3869 45.3581 61.387C45.3584 61.3874 45.3589 61.3878 45.3595 61.3884C45.3607 61.3896 45.3624 61.3913 45.3644 61.3933C45.3682 61.3971 45.373 61.4019 45.3768 61.4057L41.8415 64.9414L38.3062 68.4772C38.3021 68.4731 38.2971 68.4681 38.2932 68.4642C38.2912 68.4622 38.2895 68.4605 38.2882 68.4593C38.2876 68.4587 38.2871 68.4582 38.2868 68.4578C38.2866 68.4577 38.2865 68.4575 38.2864 68.4574C38.2863 68.4574 38.2863 68.4574 38.2863 68.4573C38.2863 68.4573 38.2863 68.4573 38.2863 68.4573C38.2863 68.4573 38.2863 68.4573 38.2863 68.4573C38.2863 68.4573 38.2863 68.4573 38.2863 68.4573C38.2863 68.4573 38.2863 68.4573 38.2863 68.4573C38.2863 68.4573 38.2863 68.4573 41.8219 64.9219ZM41.8415 64.9414L45.377 61.4059C45.4794 61.5083 45.5629 61.5868 45.64 61.654L42.3532 65.4219L39.0664 69.1898C38.7763 68.9367 38.5239 68.6949 38.3059 68.477L41.8415 64.9414ZM42.3532 65.4219L45.7198 61.7252C45.8076 61.8051 45.9277 61.9059 46.0929 62.0304L43.0837 66.0235L40.0744 70.0165C39.7005 69.7347 39.3363 69.4372 38.9865 69.1186L42.3532 65.4219ZM43.0837 66.0235L46.0238 61.9792C47.2131 62.8439 48.2256 63.0305 49.1316 62.9488C50.1391 62.8579 51.363 62.3924 52.7045 61.4039C55.488 59.3529 57.7586 55.7986 58.5001 52.8024L63.3537 54.0035L68.2073 55.2045C66.9167 60.4197 63.3374 65.9907 58.6365 69.4545C56.2359 71.2233 53.3089 72.6126 50.0298 72.9083C46.6492 73.2132 43.2394 72.3183 40.1436 70.0677L43.0837 66.0235ZM63.3537 54.0035L59.3852 50.9618L59.3965 50.9471L63.3649 53.9887L67.3334 57.0304L67.3221 57.0451L63.3537 54.0035ZM9.18494 69.5197L13.1508 66.4748C16.4286 70.7439 19.9912 74.1539 24.1958 75.9034L22.2749 80.5197L20.354 85.136C13.8004 82.409 8.94131 77.4128 5.21905 72.5647L9.18494 69.5197ZM22.2749 80.5197L24.0707 75.8533C27.4062 77.1369 31.6407 78.2044 35.7405 78.4464C39.9229 78.6933 43.3584 78.0497 45.6572 76.5782L48.3529 80.7893L51.0486 85.0004C46.2384 88.0796 40.3654 88.7368 35.1513 88.429C29.8546 88.1163 24.6045 86.7737 20.4792 85.1861L22.2749 80.5197ZM48.3529 80.7893L45.5196 76.6695C46.2205 76.1875 46.8083 75.6725 47.2742 75.1351L51.0521 78.4104L54.8301 81.6856C53.718 82.9684 52.4619 84.0317 51.1863 84.909L48.3529 80.7893ZM51.0521 78.4104L46.8339 75.726C47.0979 75.311 47.3687 74.9678 47.5613 74.7325L51.431 77.8987L55.3008 81.0648C55.2811 81.0889 55.2663 81.1074 55.2552 81.1215C55.2441 81.1356 55.2379 81.1438 55.2354 81.1472C55.2329 81.1504 55.2352 81.1475 55.241 81.1391C55.2469 81.1307 55.2571 81.1158 55.2704 81.0948L51.0521 78.4104ZM51.431 77.8987L46.8106 79.8094C45.5813 76.8369 45.2521 73.5409 45.5429 70.4498L50.5209 70.9182L55.4989 71.3865C55.3288 73.194 55.562 74.8042 56.0515 75.9879L51.431 77.8987ZM50.5209 70.9182L51.3529 75.8484C49.6461 76.1365 47.8512 76.1967 46.0066 75.9412L46.6928 70.9885L47.379 66.0358C48.1282 66.1396 48.8957 66.1217 49.6889 65.9879L50.5209 70.9182ZM46.6928 70.9885L46.1991 75.964C42.3723 75.5843 38.8703 73.6883 36.3421 71.1108L39.9116 67.6096L43.4811 64.1083C44.5777 65.2262 45.9743 65.8926 47.1865 66.0129L46.6928 70.9885ZM39.9116 67.6096L42.6202 71.8123C40.6769 73.0648 38.4331 73.9312 35.9912 74.2416L35.3608 69.2815L34.7304 64.3214C35.6088 64.2097 36.4431 63.8965 37.203 63.4068L39.9116 67.6096ZM35.3608 69.2815L35.9664 74.2447C31.6657 74.7694 27.9177 73.5207 24.8656 71.9233C21.9189 70.381 19.1796 68.2568 17.131 66.7607L20.0798 62.7229L23.0286 58.685C25.441 60.4467 27.3969 61.9612 29.5028 63.0635C31.5033 64.1105 33.1652 64.5123 34.7552 64.3183L35.3608 69.2815ZM20.0798 62.7229L16.9685 66.6369C14.1143 64.3681 10.2683 61.6829 7.07782 58.5726L10.5681 54.9924L14.0584 51.4121C16.7741 54.0596 19.6077 55.9604 23.1911 58.8088L20.0798 62.7229ZM10.5681 54.9924L7.78336 59.1451C5.34886 57.5126 4.41917 54.678 4.66685 52.3656C4.80309 51.0936 5.35286 49.4353 6.82941 48.1688C8.40601 46.8165 10.3308 46.5145 11.9646 46.7578L11.2282 51.7033L10.4919 56.6487C11.1159 56.7416 12.2858 56.6633 13.34 55.7591C14.2941 54.9408 14.5538 53.9551 14.61 53.4306C14.6676 52.8929 14.5721 52.4512 14.4247 52.1039C14.2752 51.7515 13.9638 51.2493 13.3528 50.8396L10.5681 54.9924ZM11.2282 51.7033L13.8244 47.4301C15.1115 48.2121 16.1889 49.1405 16.9805 49.8342C17.8688 50.6128 18.4025 51.0969 18.9851 51.5128L16.0798 55.5822L13.1746 59.6515C12.0775 58.8682 11.0663 57.948 10.3891 57.3545C9.61522 56.6762 9.10665 56.2647 8.63213 55.9764L11.2282 51.7033ZM16.0798 55.5822L18.9523 51.4896C20.4458 52.5378 21.9162 53.7175 23.2636 54.7984C24.6557 55.9152 25.9391 56.9452 27.2423 57.8769C29.8871 59.7677 32.0883 60.8553 34.1792 61.0946L33.6109 66.0622L33.0425 71.0298C28.4114 70.4999 24.5268 68.2283 21.4265 66.0118C19.8571 64.8899 18.3531 63.6792 17.006 62.5986C15.6142 61.482 14.3936 60.5073 13.2074 59.6747L16.0798 55.5822ZM33.6109 66.0622L33.554 61.0625C34.5975 61.0506 35.3451 60.8372 35.873 60.5816L38.0522 65.0817L40.2315 69.5818C38.275 70.5293 36.0618 71.0346 33.6677 71.0618L33.6109 66.0622ZM38.0522 65.0817L33.6255 67.4063C32.1 64.5014 31.4378 60.9215 32.5446 57.234L37.3335 58.6715L42.1224 60.1089C41.8855 60.8981 41.9655 61.7792 42.479 62.7571L38.0522 65.0817ZM37.3335 58.6715L32.5476 57.2241C33.6118 53.7052 35.6711 50.623 37.0381 48.4273L41.2827 51.0699L45.5273 53.7125C43.8787 56.3606 42.7115 58.1612 42.1194 60.1189L37.3335 58.6715ZM41.2827 51.0699L36.8857 53.4502C36.633 52.9835 36.4613 52.697 36.2963 52.4698L40.3413 49.5308L44.3863 46.5918C44.9478 47.3646 45.3699 48.1172 45.6797 48.6895L41.2827 51.0699ZM40.3413 49.5308L36.2085 52.345C32.7498 47.2658 27.2264 43.4652 21.256 42.072L22.3923 37.2028L23.5286 32.3336C31.9562 34.3003 39.6124 39.577 44.4741 46.7166L40.3413 49.5308ZM22.3923 37.2028L21.3326 42.0892C17.5122 41.2607 14.3376 41.4571 12.1905 42.4103C10.3571 43.2243 8.78089 44.7811 8.19248 48.2403L3.26329 47.4018L-1.6659 46.5633C-0.555313 40.0344 3.02872 35.5366 8.13284 33.2706C12.9233 31.1438 18.4638 31.2346 23.4519 32.3164L22.3923 37.2028ZM3.26329 47.4018L8.18546 48.2806C7.07867 54.4798 8.96077 61.4334 13.0256 66.309L9.18519 69.5108L5.34478 72.7126C-0.574814 65.6122 -3.29429 55.6831 -1.65887 46.523L3.26329 47.4018ZM9.18519 69.5108L14.1833 69.6473L14.1831 69.6562L9.18494 69.5197L4.18681 69.3833L4.18705 69.3743L9.18519 69.5108Z" fill="#2C3C98" mask="url(#path-1-inside-1_35_22)"/>
</svg>
