<svg width="76" height="85" viewBox="-35 -25 116 115" fill="none" xmlns="http://www.w3.org/2000/svg">
  <g class="animate-motion-lines" transform="translate(-28, -14)">
    <path d="M1.00014 53.4307L1.2229 52.0184C6.38217 19.3099 36.9052 -3.15356 69.6685 1.64594" stroke="#2C3C98" stroke-width="3" stroke-linecap="round"/>
    <path d="M1.00014 53.4307L1.2229 52.0184C6.38217 19.3099 36.9052 -3.15356 69.6685 1.64594" stroke="#2C3C98" stroke-width="3" stroke-linecap="round" transform="translate(10, 12) scale(0.75)"/>
  </g>
  <path d="M69.1007 1.7255C60.6124 -2.6651 48.6317 1.65519 45.6517 10.9247C44.472 13.8739 44.6205 17.0731 44.7103 20.1864C44.8196 21.6747 44.7884 23.1669 44.679 24.6473C39.929 21.7254 34.8704 19.3387 29.691 17.2957C24.441 15.1941 18.089 13.7254 13.101 17.2371C5.49942 21.4168 4.29242 30.8581 6.88222 39.1081C-2.29748 43.9675 -1.38728 54.0181 4.31192 60.9481C2.71032 61.3387 1.30022 63.4481 0.780719 64.8192C-1.53958 70.9208 1.89012 78.1392 7.24952 81.4482C12.3979 85.3779 19.8975 85.9677 25.2495 82.4873C25.3276 82.5264 25.398 82.5772 25.4878 82.6084L25.4292 82.5576C40.0502 89.5381 61.7382 78.3584 60.5502 61.1276C60.5111 60.6589 60.4096 60.0964 60.2494 59.5768C65.1205 55.3776 68.5189 49.4988 67.7103 42.8778C67.1205 36.8895 65.8705 30.5888 68.5619 24.9088C70.4213 20.358 74.1713 16.6471 75.2338 11.7878C76.3236 6.52612 73.6049 3.80732 69.1127 1.72882L69.1007 1.7255ZM4.26068 44.4755C5.08099 43.1044 6.28018 42.0341 7.63958 41.245C9.51068 45.8739 12.581 49.9247 16.3505 52.124C20.3817 54.6826 26.0888 54.8428 30.7725 53.2138C31.1006 53.6044 31.5108 53.9755 31.7139 54.3857C32.3037 55.3271 32.9131 56.2568 33.4053 57.2568C36.917 66.1552 25.8037 68.8158 19.2333 66.8076C14.6317 65.5693 10.1942 63.4795 6.93229 59.9092C3.40109 55.7178 1.00259 49.4992 4.26039 44.4792L4.26068 44.4755ZM19.7487 82.1555C13.1276 83.5344 5.65868 78.8469 3.55768 72.5071C2.44828 69.7688 2.52648 66.468 4.20612 63.9759C4.53425 63.5072 5.32722 63.054 5.77642 62.5462C6.87802 63.636 8.10452 64.6165 9.43662 65.4446C14.546 68.3548 20.4486 70.386 26.3856 69.6243C27.0067 69.6048 27.6161 69.5149 28.2254 69.3938C28.0457 69.5423 27.8973 69.7454 27.8348 70.0227C29.495 75.593 25.2762 81.1247 19.7332 82.1637L19.7487 82.1555ZM72.6077 10.4755C71.9475 15.6943 67.6858 19.5146 65.8772 24.3345C62.4788 31.3462 65.1077 39.0065 64.9358 46.3545C64.5139 51.0147 61.8577 54.9053 58.3772 57.8855C58.0881 57.9871 57.7678 58.1941 57.4084 58.5847C57.3967 58.616 57.3967 58.655 57.3889 58.6863C55.967 59.7879 54.4592 60.7371 52.9084 61.5457C50.8967 62.534 48.7482 63.1941 46.6779 64.0145C46.1076 64.1239 45.217 64.2332 45.3185 65.0145C45.5685 65.9442 46.6974 65.5028 47.3771 65.4442C49.7755 65.6629 52.0177 64.6942 54.1388 63.6356C55.3888 63.0145 56.6076 62.2958 57.7872 61.4754C57.8263 61.6941 57.8575 61.9168 57.8458 62.1355C58.0567 72.8975 47.9942 81.1945 37.8148 82.0845C34.4945 82.5259 31.1429 82.0338 28.0062 80.9243C27.807 80.8736 27.6077 80.8032 27.4163 80.7329C27.7249 80.4243 28.0257 80.104 28.307 79.7525C30.2289 77.4908 31.3656 74.5142 30.9789 71.522C30.9007 70.9516 30.7679 70.3736 30.5179 69.8501C30.2992 69.4204 29.8265 69.1704 29.346 69.1118C33.8343 67.7329 37.6077 63.7016 36.6546 58.7328C36.5062 57.5922 34.8734 53.9516 33.1429 52.1937C38.1312 49.5335 41.0023 44.4945 37.264 38.0337C35.4046 34.4243 32.014 31.9946 29.7054 28.7251C29.0062 27.6548 27.8968 24.3657 26.4359 26.436C25.5648 33.1157 40.0259 37.866 35.1351 47.557C21.1231 60.018 7.13512 44.1781 8.57612 28.967C8.748 22.1662 15.5058 16.365 22.2871 17.487C28.1387 18.6472 33.6151 21.3151 38.9471 23.9167C40.7869 24.9362 42.7166 25.8659 44.4862 27.0183C44.3651 28.1785 44.2245 29.3464 44.1151 30.5066C43.8065 32.2058 45.9237 33.1277 46.6854 31.487C47.2362 30.2761 47.7362 18.757 47.5448 14.737C48.1151 7.48704 54.9159 2.11604 62.0248 2.41704C66.3256 2.73735 73.5248 5.03815 72.6028 10.4873L72.6077 10.4755Z" fill="#2C3C98"/>
</svg>
