<svg width="224" height="140" viewBox="0 0 224 140" fill="none" xmlns="http://www.w3.org/2000/svg">
<path d="M213.694 78.2655C221.131 104.859 191.956 121.207 181.844 124.035C138.026 136.29 124.827 131.792 117.389 105.199C109.952 78.6048 125.481 51.0171 152.075 43.5797C178.669 36.1423 206.257 51.6717 213.694 78.2655Z" fill="white" stroke="#2C3C98" stroke-width="5"/>
<circle cx="153.589" cy="92" r="25" fill="#2C3C98" stroke="#2C3C98" stroke-width="5"/>
<circle cx="153.089" cy="92.5" r="12.5" fill="white" stroke="#2C3C98" stroke-width="5"/>
<path d="M9.73069 62.5408L10.9961 61.8753C40.3026 46.4612 76.5558 57.5052 92.291 86.6406" stroke="#2C3C98" stroke-width="5" stroke-linecap="round"/>
<path d="M120.923 42.5183L121.962 41.5368C146.042 18.8067 183.929 19.6903 206.923 43.5183" stroke="#2C3C98" stroke-width="5" stroke-linecap="round"/>
<path d="M87.8021 106.73L71.0788 100.493C55.7981 94.7945 39.4415 92.5648 23.1931 93.9656L2.50017 95.7495" stroke="#2C3C98" stroke-width="5" stroke-linecap="round"/>
<path d="M91.0746 97.9322C91.0746 97.9322 83.9953 94.5957 74.8003 86.3071C65.6053 78.0184 51.086 77.3555 51.086 77.3555" stroke="#2C3C98" stroke-width="4" stroke-linecap="round"/>
<path d="M88.0018 106.241C88.0018 106.241 75.736 113.627 52.0055 112.264C28.2749 110.901 25.6582 118.673 25.6582 118.673" stroke="#2C3C98" stroke-width="4" stroke-linecap="round"/>
</svg>
