<svg width="229" height="120" viewBox="0 0 229 120" fill="none" xmlns="http://www.w3.org/2000/svg">
<path d="M224.5 83.0117C224.5 110.626 202.114 117 174.5 117C146.886 117 124.5 110.626 124.5 83.0117C124.5 55.3975 146.886 33.0117 174.5 33.0117C202.114 33.0117 224.5 55.3975 224.5 83.0117Z" fill="white" stroke="#2C3C98" stroke-width="5"/>
<circle cx="199.5" cy="83.0117" r="25" fill="#2C3C98" stroke="#2C3C98" stroke-width="5"/>
<circle cx="187" cy="80.5117" r="12.5" fill="white" stroke="#2C3C98" stroke-width="5"/>
<path d="M102.5 83.0117C102.5 110.626 83.1142 114 55.5 114C27.8858 114 2.5 110.626 2.5 83.0117C2.5 55.3975 24.8858 33.0117 52.5 33.0117C80.1142 33.0117 102.5 55.3975 102.5 83.0117Z" fill="white" stroke="#2C3C98" stroke-width="5"/>
<circle cx="77.5" cy="83.0117" r="25" fill="#2C3C98" stroke="#2C3C98" stroke-width="5"/>
<circle cx="65" cy="80.5117" r="12.5" fill="white" stroke="#2C3C98" stroke-width="5"/>
<path d="M130.5 2.5L136.068 8.02657C142.28 14.193 150.147 18.4254 158.717 20.2109C177.19 24.0601 196.01 26 214.88 26L226 26" stroke="#2C3C98" stroke-width="5" stroke-linecap="round"/>
<path d="M100.26 3L94.6926 8.52657C88.4802 14.693 80.6129 18.9254 72.0438 20.7109C53.5704 24.5601 34.7502 26.5 15.8801 26.5L4.76031 26.5" stroke="#2C3C98" stroke-width="5" stroke-linecap="round"/>
</svg>
